<svg version="1.2" xmlns="http://www.w3.org/2000/svg" viewBox="0 0 112.2 118.71" width="128" height="128">
	<style>
		.s0 { fill: #000000 } 
	</style>
	<g id="Layer 1">
		<path class="s0" d="m1.02 118.68c0.11-0.67 0.19-1.25 0.31-1.82q0.76-3.82 2.19-7.43c1.14-2.84 2.61-5.5 4.3-8.05 2.56-3.85 5.66-7.2 9.14-10.23 3.29-2.87 6.86-5.32 10.68-7.43q2.54-1.39 5.08-2.77 0.4-0.24 0.83-0.39 0.5-0.15 0.58-0.64c0.26-1.47 0.58-2.93 0.74-4.4 0.25-2.3 0.12-4.6-0.25-6.89-0.08-0.5-0.26-0.8-0.77-1-1.78-0.71-3.42-1.7-5.03-2.72-2.29-1.45-4.43-3.09-6.3-5.05-0.85-0.89-1.62-1.85-2.42-2.77-0.12-0.14-0.26-0.27-0.44-0.46-0.28 0.34-0.51 0.62-0.73 0.91-1.31 1.71-2.6 3.42-3.57 5.36-0.54 1.08-1.1 2.15-1.55 3.27-0.54 1.36-0.97 2.77-1.44 4.16-0.3 0.89-0.57 1.8-0.88 2.68-0.26 0.74-0.79 1.17-1.56 1.37q-1.01 0.24-1.65-0.52c-0.5-0.57-0.75-1.25-0.54-2.01 0.44-1.58 0.88-3.17 1.38-4.73 0.64-2.03 1.5-3.99 2.52-5.85 0.82-1.5 1.77-2.93 2.74-4.34 0.8-1.17 1.71-2.28 2.56-3.39-0.67-1.01-1.33-2.02-2.03-3.09-0.31 0.27-0.56 0.48-0.8 0.7-1.27 1.12-2.58 2.19-3.79 3.37q-1.87 1.81-3.54 3.8c-1.05 1.26-1.94 2.65-2.91 3.98-0.4 0.55-0.79 1.09-1.52 1.28-0.52 0.14-0.95 0.05-1.37-0.22-0.8-0.51-1.18-1.57-0.88-2.48 0.31-0.96 0.92-1.75 1.52-2.53q1.5-1.96 3.09-3.85c1.42-1.68 3.02-3.18 4.73-4.56 1.19-0.96 2.43-1.88 3.75-2.89q-0.16-1.17-0.36-2.58c-0.13 0.04-0.28 0.05-0.41 0.11q-4.33 2.01-8.37 4.56-0.25 0.16-0.51 0.3c-1.11 0.58-2.11 0.04-2.56-0.63-0.51-0.77-0.35-2.04 0.41-2.64q1.09-0.86 2.26-1.58c1.91-1.18 3.95-2.09 6.01-2.98 0.8-0.35 1.65-0.6 2.48-0.86 0.34-0.1 0.53-0.27 0.57-0.63 0.06-0.65 0.15-1.29 0.23-2.01-1.29 0.26-2.49 0.49-3.69 0.73-0.64 0.13-1.28 0.29-1.93 0.41-1.06 0.2-1.96-0.33-2.24-1.25-0.27-0.9 0.22-2.18 1.17-2.5 1.11-0.37 2.23-0.66 3.38-0.79q2.35-0.24 4.72-0.42c0.35-0.03 0.55-0.18 0.67-0.51 0.59-1.61 1.56-2.97 2.66-4.27 0.87-1.03 1.79-1.99 2.82-2.85 0.32-0.27 0.41-0.61 0.44-0.99 0.07-1.21 0.31-2.39 0.65-3.55 0.39-1.36 0.94-2.64 1.84-3.75q1.35-1.67 3.46-1.95c0.46-0.06 0.69-0.24 0.88-0.65 0.56-1.21 1.45-2.2 2.31-3.19 1.92-2.23 4.18-4.08 6.65-5.66 2.69-1.71 5.59-3.02 8.6-4.08 2.8-0.98 5.68-1.66 8.6-2.15q3.94-0.65 7.93-0.69c2.15-0.03 4.3 0.08 6.43 0.4 1.63 0.24 3.26 0.47 4.87 0.79 2.58 0.52 5.07 1.37 7.55 2.28 4.11 1.52 7.87 3.65 11.42 6.18 1.76 1.25 3.35 2.7 4.9 4.18 1.08 1.03 2.1 2.12 3.16 3.17 0.14 0.14 0.35 0.27 0.55 0.31 1.79 0.32 3.47 0.95 4.99 1.96 2.7 1.79 4.64 4.2 5.69 7.28 1.12 3.29 0.87 6.53-0.55 9.68q-0.91 2.01-2.28 3.76c-0.15 0.19-0.11 0.35-0.07 0.54 0.25 1.45 0.51 2.89 0.72 4.35 0.35 2.46 0.55 4.92 0.69 7.4 0.25 4.61 0.25 9.22 0.17 13.83q-0.08 4.54-0.24 9.09c-0.13 3.91-0.33 7.81-0.42 11.71-0.12 5.14-0.19 10.28 0.1 15.41q0.21 3.62 0.65 7.21c0.25 2.02 0.61 4.03 1.17 6q0.39 1.36 0.77 2.72 0.05 0.23 0.07 0.46h-17.38c0-0.14-0.02-0.22 0-0.27 1.2-2.4 2.07-4.93 2.8-7.5 0.72-2.53 1.23-5.11 1.72-7.7 0.5-2.65 0.83-5.33 1.07-8.02 0.41-4.57 0.77-9.14 0.87-13.73q0.11-5.44-0.02-10.87c-0.06-2.57-0.25-5.13-0.44-7.69-0.19-2.56-0.65-5.09-1.14-7.61q-0.71-3.66-2.14-7.11c-0.94-2.28-2.15-4.42-3.75-6.31q-1.2-1.45-2.5-2.79c-2.16-2.19-4.68-3.91-7.42-5.29-2.05-1.04-4.18-1.93-6.44-2.43q-1.12-0.25-2.25-0.46-0.13-0.04-0.21-0.07c0.22-0.92 0.47-1.81 0.64-2.71 0.54-2.84 0.12-5.52-1.59-7.9-1.35-1.89-3.13-3.21-5.46-3.6-2.64-0.43-4.9 0.35-6.71 2.34q-0.33 0.36-0.62 0.77c-0.15 0.22-0.26 0.47-0.4 0.73 0.75-0.42 1.42-0.88 2.15-1.18 4.06-1.68 8.92 0.86 9.46 5.64 0.2 1.8-0.32 3.43-1.64 4.68-1.48 1.39-3.94 2.14-5.97 1.11-0.05-0.03-0.12-0.03-0.26-0.06 0.37 0.49 0.68 0.92 1.01 1.35 1.56 2.08 2.87 4.31 3.79 6.75 0.12 0.33 0.27 0.65 0.34 0.99 0.09 0.43 0.37 0.62 0.74 0.74 2.73 0.86 5.32 2.05 7.8 3.46 0.99 0.56 1.93 1.21 2.87 1.86q0.53 0.39 0.94 0.91c0.55 0.72 0.55 1.52 0.05 2.19-0.53 0.73-1.37 1.02-2.21 0.71q-0.62-0.23-1.16-0.6c-1.95-1.32-4.01-2.43-6.09-3.52-0.66-0.35-1.35-0.63-2.03-0.93-0.11-0.05-0.24-0.06-0.34-0.08q-0.11 0.08-0.13 0.12-0.16 1.31-0.32 2.6c-0.04 0.34 0.08 0.54 0.4 0.73q5.6 3.41 10.02 8.27c1 1.1 1.95 2.26 2.91 3.4q0.32 0.38 0.55 0.82c0.63 1.25 0.38 1.91-0.45 2.8-0.52 0.56-1.62 0.6-2.25 0.12q-0.38-0.31-0.69-0.7c-0.86-1.02-1.67-2.09-2.57-3.08-1.55-1.71-3.26-3.26-5.05-4.71-1.33-1.07-2.72-2.08-4.09-3.1-0.2-0.15-0.44-0.25-0.69-0.39-0.65 0.83-1.08 1.77-2.08 2.34 0.47 0.43 0.87 0.83 1.29 1.19 3.4 2.9 6.28 6.25 8.74 9.97 1.37 2.07 2.62 4.21 3.52 6.53q0.16 0.43 0.22 0.89c0.14 1-0.45 1.61-1.15 1.93-0.87 0.4-1.64 0.26-2.25-0.48-0.35-0.41-0.62-0.9-0.86-1.39-1.46-2.99-3.22-5.8-5.33-8.36q-3.38-4.1-7.56-7.41c-0.28-0.22-0.51-0.24-0.84-0.13-2.96 1.06-6.01 1.38-9.14 1.09-1.56-0.14-3.11-0.3-4.6-0.77q-1.96-0.65-3.87-1.47c-2.15-0.91-4.1-2.18-6-3.52-1.13-0.8-1.93-1.91-2.8-2.96-0.39-0.47-0.73-0.98-1.11-1.47-0.05-0.06-0.13-0.09-0.18-0.13-1.85 4.06-4.96 6.55-9.29 7.69 0.47 0.56 0.92 1.08 1.43 1.55 2.56 2.35 5.45 4.19 8.58 5.68q3.37 1.61 6.98 2.49 3.23 0.79 6.54 1.15c3.26 0.35 6.53 0.35 9.8 0.2 2.23-0.1 4.46-0.37 6.69-0.57q1.21-0.12 2.42-0.25c0.19-0.02 0.38 0 0.69 0-0.15 0.22-0.2 0.35-0.3 0.45-2.42 2.38-5.23 4.12-8.51 5.07q-2.69 0.79-5.48 1.05c-1.77 0.16-3.54 0.26-5.33 0.19-2-0.08-3.98-0.28-6.04-0.73q0.05 0.41 0.1 0.73 0.9 4.18 0.53 8.44c-0.11 1.18-0.17 2.37-0.36 3.53-0.24 1.49-0.6 2.96-0.9 4.45-0.38 1.89-0.81 3.77-1.1 5.68q-0.66 4.43-0.61 8.92 0.04 3.69 0.59 7.34c0.37 2.41 1.09 4.74 1.92 7.03q0.2 0.56 0.38 1.12c0.02 0.06 0 0.13 0 0.25h-41.61zm64.83-72.94c0.2-0.9 0.15-1.7 0.13-2.51-0.01-0.44-0.22-0.65-0.63-0.78-1.58-0.51-3.15-1.08-4.74-1.58-2.4-0.76-4.79-1.55-7.28-2-0.22-0.04-0.43-0.16-0.65-0.24 0.42-0.2 0.83-0.26 1.23-0.34 1.36-0.27 2.73-0.44 4.12-0.42 2.11 0.03 4.2 0.31 6.26 0.73q0.24 0.04 0.51 0.05c-0.01-0.6-0.37-0.99-0.61-1.43-2.3-4.15-5.61-7.35-9.56-9.88q-3.9-2.48-8.35-3.82c-2.04-0.62-4.11-1.12-6.23-1.33-3.25-0.33-6.47-0.22-9.66 0.64q-4.03 1.07-6.87 4.06c-1.01 1.07-1.93 2.21-2.86 3.35-1.24 1.51-1.95 3.31-2.78 5.11q0.29 0.23 0.55 0.39 0.75 0.48 1.49 0.96c0.11 0.07 0.18 0.21 0.33 0.38-0.83 0.09-1.57 0.17-2.31 0.26-0.85 0.11-1.17 0.37-1.3 1.13-0.08 0.48-0.06 0.98-0.08 1.5 0.84 0 1.58-0.01 2.33 0q0.4 0 0.77 0.15c0.15 0.06 0.29 0.25 0.34 0.41 0.02 0.07-0.21 0.23-0.34 0.32-0.95 0.58-1.92 1.13-2.86 1.73-0.15 0.1-0.29 0.37-0.27 0.54 0.09 0.75 0.24 1.5 0.37 2.3 0.77-0.26 1.48-0.49 2.17-0.74 0.7-0.26 1.39-0.55 2.17-0.57q-0.1 0.28-0.27 0.45-1.27 1.34-2.56 2.66c-0.22 0.23-0.34 0.48-0.18 0.77 0.57 1.1 1.22 2.14 2.29 2.84 0.17 0.11 0.4 0.22 0.6 0.21 0.52-0.02 1.05-0.05 1.55-0.18 1.25-0.33 2.36-0.94 3.38-1.73q1.61-1.22 2.75-2.9c1.09-1.61 1.74-3.39 2.13-5.27 0.21-1.02 0.27-2.05-0.15-3.04-0.29-0.68-0.72-1.17-1.47-1.39-0.69-0.2-1.36-0.48-2.03-0.75-2.96-1.24-3.89-4.99-3.02-7.14 0.72-1.78 1.92-3 4.08-3.23-0.34 0.24-0.57 0.44-0.82 0.56-0.66 0.32-0.61 0.92-0.21 1.5 0.73 1.04 1.75 1.31 2.95 1.12 1.29-0.21 2.39-0.81 3.47-1.52 0.88-0.58 1.76-1.15 2.69-1.64 0.38-0.2 0.88-0.25 1.33-0.23 1.21 0.03 2.2 0.59 2.99 1.47 1.42 1.57 1.9 3.37 1.17 5.42-0.58 1.63-1.79 2.68-3.3 3.41q-1.19 0.56-2.42 1.03c-0.67 0.26-1.12 0.73-1.26 1.41-0.1 0.48-0.13 1-0.05 1.49 0.16 1.03 0.58 1.98 1.1 2.87 1.84 3.16 4.33 5.67 7.54 7.45 3.79 2.1 7.84 3.13 12.18 3.01 0.65-0.02 1.29-0.09 2.04-0.15-0.15-0.16-0.22-0.27-0.32-0.34-0.97-0.76-1.95-1.49-2.9-2.27q-2.18-1.79-4.35-3.62c-0.22-0.18-0.42-0.36-0.44-0.67 0.08-0.02 0.12-0.05 0.16-0.04q1.75 0.58 3.49 1.17 3.15 1.08 6.01 2.82 1.21 0.75 2.4 1.49c0.7 0.43 0.71 0.42 1.28-0.13 0.31-0.31 0.63-0.62 0.89-0.97 0.23-0.3 0.54-0.58 0.56-1.05q-0.66-0.37-1.3-0.75c-1.13-0.63-2.24-1.29-3.39-1.89q-1.92-1-3.9-1.9c-1.77-0.82-3.56-1.59-5.33-2.39-0.12-0.05-0.21-0.17-0.31-0.25 5.54 0 10.64 1.56 15.6 3.95zm23.67-21c0.19 0.08 0.3 0.14 0.42 0.18 0.65 0.2 1.31 0.35 1.94 0.59 0.39 0.15 0.74 0.18 1.14 0.06 0.84-0.25 1.67-0.54 2.53-0.69 2.52-0.44 4.73 0.12 6.36 2.21 1.39 1.79 1.78 3.81 0.98 5.95-0.53 1.42-1.47 2.59-2.66 3.54-0.87 0.69-1.78 1.33-2.72 2.03 0.95 0.25 1.84 0.33 2.74 0.29q1.73-0.05 3.13-1.06c3.17-2.32 4.33-6.51 3-10.18-0.69-1.89-1.9-3.35-3.49-4.52-1.28-0.94-2.72-1.47-4.3-1.66-1.31-0.16-2.57 0-3.85 0.28-1.64 0.37-3.11 1.06-4.36 2.18q-0.39 0.36-0.86 0.79zm-64.53-4.42c0.01 0.7 0.73 1.49 1.33 1.46 0.71-0.03 1.59-0.82 1.59-1.42 0-0.79-0.73-1.52-1.49-1.5-0.86 0.02-1.44 0.62-1.43 1.46zm40.31 4.65c1.16 0.01 2.08-0.88 2.11-2.03 0.03-1.06-1.06-2.18-2.13-2.18-0.91 0-2.03 1.17-2.04 2.16-0.02 1.17 0.86 2.05 2.06 2.05z"/>
	</g>
</svg>