<?xml version="1.0" encoding="UTF-8"?>
<svg width="116.18" height="120.72" version="1.1" viewBox="0 0 116.18 120.72" xmlns="http://www.w3.org/2000/svg">
 <defs>
  <style>.cls-1{fill:#fff;}</style>
 </defs>
 <path class="cls-1" d="m96.801 120.44c1.2-2.4 2.07-4.93 2.8-7.5 0.72-2.53 1.23-5.11 1.72-7.7 0.5-2.65 0.83-5.33 1.07-8.02 0.41-4.57 0.77-9.14 0.87-13.73 0.08-3.62 0.06-7.25-0.02-10.87-0.06-2.57-0.25-5.13-0.44-7.69s-0.65-5.09-1.14-7.61c-0.47-2.44-1.19-4.81-2.14-7.11-0.94-2.28-2.15-4.42-3.75-6.31-0.81-0.96-1.63-1.9-2.5-2.79-2.16-2.19-4.68-3.91-7.42-5.29-2.05-1.04-4.18-1.93-6.44-2.43-0.75-0.17-1.5-0.31-2.25-0.46-0.08-0.02-0.16-0.06-0.21-0.07 0.22-0.92 0.47-1.81 0.64-2.71 0.54-2.84 0.12-5.52-1.59-7.9-1.35-1.89-3.13-3.21-5.46-3.6-2.64-0.43-4.9 0.35-6.71 2.34-0.22 0.24-0.43 0.5-0.62 0.77-0.15 0.22-0.26 0.47-0.4 0.73 0.75-0.42 1.42-0.88 2.15-1.18 4.06-1.68 8.92 0.86 9.46 5.64 0.2 1.8-0.32 3.43-1.64 4.68-1.48 1.39-3.94 2.14-5.97 1.11-0.05-0.03-0.12-0.03-0.26-0.06 0.37 0.49 0.68 0.92 1.01 1.35 1.56 2.08 2.87 4.31 3.79 6.75 0.12 0.33 0.27 0.65 0.34 0.99 0.09 0.43 0.37 0.62 0.74 0.74 2.73 0.86 5.32 2.05 7.8 3.46 0.99 0.56 1.93 1.21 2.87 1.86 0.35 0.25 0.67 0.57 0.94 0.91 0.55 0.72 0.55 1.52 0.05 2.19-0.53 0.73-1.37 1.02-2.21 0.71-0.41-0.15-0.8-0.36-1.16-0.6-1.95-1.32-4.01-2.43-6.09-3.52-0.66-0.35-1.35-0.63-2.03-0.93-0.11-0.05-0.24-0.06-0.34-0.08-0.07 0.06-0.12 0.09-0.13 0.12-0.11 0.87-0.21 1.74-0.32 2.6-0.04 0.34 0.08 0.54 0.4 0.73 3.74 2.27 7.07 5.04 10.02 8.27 1 1.1 1.95 2.26 2.91 3.4 0.21 0.25 0.4 0.53 0.55 0.82 0.63 1.25 0.38 1.91-0.45 2.8-0.52 0.56-1.62 0.6-2.25 0.12-0.26-0.2-0.48-0.45-0.69-0.7-0.86-1.02-1.67-2.09-2.57-3.08-1.55-1.71-3.26-3.26-5.05-4.71-1.33-1.07-2.72-2.08-4.09-3.1-0.2-0.15-0.44-0.25-0.69-0.39-0.65 0.83-1.08 1.77-2.08 2.34 0.47 0.43 0.87 0.83 1.29 1.19 3.4 2.9 6.28 6.25 8.74 9.97 1.37 2.07 2.62 4.21 3.52 6.53 0.11 0.28 0.17 0.59 0.22 0.89 0.14 1-0.45 1.61-1.15 1.93-0.87 0.4-1.64 0.26-2.25-0.48-0.35-0.41-0.62-0.9-0.86-1.39-1.46-2.99-3.22-5.8-5.33-8.36-2.25-2.73-4.78-5.2-7.56-7.41-0.28-0.22-0.51-0.24-0.84-0.13-2.96 1.06-6.01 1.38-9.14 1.09-1.56-0.14-3.11-0.3-4.6-0.77-1.31-0.42-2.6-0.93-3.87-1.47-2.15-0.91-4.1-2.18-6-3.52-1.13-0.8-1.93-1.91-2.8-2.96-0.39-0.47-0.73-0.98-1.11-1.47-0.05-0.06-0.13-0.09-0.18-0.13-1.85 4.06-4.96 6.55-9.29 7.69 0.47 0.56 0.92 1.08 1.43 1.55 2.56 2.35 5.45 4.19 8.58 5.68 2.25 1.07 4.57 1.91 6.98 2.49 2.15 0.52 4.33 0.92 6.54 1.15 3.26 0.34 6.53 0.35 9.8 0.2 2.23-0.1 4.46-0.37 6.69-0.57 0.81-0.07 1.61-0.17 2.42-0.25 0.19-0.02 0.38 0 0.69 0-0.15 0.22-0.2 0.35-0.3 0.45-2.42 2.38-5.23 4.12-8.51 5.07-1.79 0.52-3.62 0.88-5.48 1.05-1.77 0.16-3.54 0.26-5.33 0.19-2-0.08-3.98-0.28-6.04-0.73 0.04 0.28 0.06 0.51 0.1 0.73 0.59 2.79 0.78 5.6 0.53 8.44-0.11 1.18-0.17 2.37-0.36 3.53-0.24 1.49-0.6 2.96-0.9 4.45-0.38 1.89-0.81 3.77-1.1 5.68-0.45 2.95-0.64 5.93-0.61 8.92 0.03 2.46 0.22 4.91 0.59 7.34 0.37 2.41 1.09 4.74 1.92 7.03 0.13 0.37 52.52 1.15 52.55 1.1z"/>
 <path class="cls-1" d="m91.531 26.77c0.19 0.08 0.3 0.14 0.42 0.18 0.65 0.2 1.31 0.35 1.94 0.59 0.39 0.15 0.74 0.18 1.14 0.06 0.84-0.25 1.67-0.54 2.53-0.69 2.52-0.44 4.73 0.12 6.36 2.21 1.39 1.79 1.78 3.81 0.98 5.95-0.53 1.42-1.47 2.59-2.66 3.54-0.87 0.69-1.78 1.33-2.72 2.03 0.95 0.25 1.84 0.33 2.74 0.29 1.15-0.04 2.2-0.38 3.13-1.06 3.17-2.32 4.33-6.51 3-10.18-0.69-1.89-1.9-3.35-3.49-4.52-1.28-0.94-2.72-1.47-4.3-1.66-1.31-0.16-2.57 0-3.85 0.28-1.64 0.37-3.11 1.06-4.36 2.18-0.27 0.24-0.54 0.5-0.86 0.79z"/>
 <path class="cls-1" d="m27.001 22.35c0.01 0.7 0.73 1.49 1.33 1.46 0.71-0.03 1.59-0.82 1.59-1.42 0-0.79-0.73-1.52-1.49-1.5-0.86 0.02-1.44 0.62-1.43 1.46z"/>
 <path class="cls-1" d="m67.301 27c1.16 0.01 2.08-0.88 2.11-2.03 0.03-1.06-1.06-2.18-2.13-2.18-0.91 0-2.03 1.17-2.04 2.16-0.02 1.17 0.86 2.05 2.06 2.06z"/>
 <path class="cls-1" d="m67.851 47.77c0.2-0.9 0.15-1.7 0.13-2.51-0.01-0.44-0.22-0.65-0.63-0.78-1.58-0.51-3.15-1.08-4.74-1.58-2.4-0.76-4.79-1.55-7.28-2-0.22-0.04-0.43-0.16-0.65-0.24 0.42-0.2 0.83-0.26 1.23-0.34 1.36-0.27 2.73-0.44 4.12-0.42 2.11 0.03 4.2 0.31 6.26 0.73 0.16 0.03 0.33 0.03 0.51 0.05-0.01-0.6-0.37-0.99-0.61-1.43-2.3-4.15-5.61-7.35-9.56-9.88-2.59-1.66-5.39-2.93-8.35-3.82-2.04-0.62-4.11-1.12-6.23-1.33-3.25-0.33-6.47-0.22-9.66 0.64-2.69 0.72-4.97 2.06-6.87 4.06-1.01 1.07-1.93 2.21-2.86 3.35-1.24 1.51-1.95 3.31-2.78 5.11 0.2 0.15 0.37 0.28 0.55 0.39 0.5 0.32 1 0.63 1.49 0.96 0.11 0.07 0.18 0.21 0.33 0.38-0.83 0.09-1.57 0.17-2.31 0.26-0.85 0.11-1.17 0.37-1.3 1.13-0.08 0.48-0.06 0.98-0.08 1.5 0.84 0 1.58-0.01 2.33 0 0.26 0 0.53 0.05 0.77 0.15 0.15 0.06 0.29 0.25 0.34 0.41 0.02 0.07-0.21 0.23-0.34 0.32-0.95 0.58-1.92 1.13-2.86 1.73-0.15 0.1-0.29 0.37-0.27 0.54 0.09 0.75 0.24 1.5 0.37 2.3 0.77-0.26 1.48-0.49 2.17-0.74 0.7-0.26 1.39-0.55 2.17-0.57-0.07 0.19-0.16 0.33-0.27 0.45-0.85 0.89-1.7 1.78-2.56 2.66-0.22 0.23-0.34 0.48-0.18 0.77 0.57 1.1 1.22 2.14 2.29 2.84 0.17 0.11 0.4 0.22 0.6 0.21 0.52-0.02 1.05-0.05 1.55-0.18 1.25-0.33 2.36-0.94 3.38-1.73 1.07-0.82 1.99-1.78 2.75-2.9 1.09-1.61 1.74-3.39 2.13-5.27 0.21-1.02 0.27-2.05-0.15-3.04-0.29-0.68-0.72-1.17-1.47-1.39-0.69-0.2-1.36-0.48-2.03-0.75-2.96-1.24-3.89-4.99-3.02-7.14 0.72-1.78 1.92-3 4.08-3.23-0.34 0.24-0.57 0.44-0.82 0.56-0.66 0.32-0.61 0.92-0.21 1.5 0.73 1.04 1.75 1.31 2.95 1.12 1.29-0.21 2.39-0.81 3.47-1.52 0.88-0.58 1.76-1.15 2.69-1.64 0.38-0.2 0.88-0.25 1.33-0.23 1.21 0.03 2.2 0.59 2.99 1.47 1.42 1.57 1.9 3.37 1.17 5.42-0.58 1.63-1.79 2.68-3.3 3.41-0.79 0.38-1.6 0.71-2.42 1.03-0.67 0.26-1.12 0.73-1.26 1.41-0.1 0.48-0.13 1-0.05 1.49 0.16 1.03 0.58 1.98 1.1 2.87 1.84 3.16 4.33 5.67 7.54 7.45 3.79 2.1 7.84 3.13 12.18 3.01 0.65-0.02 1.29-0.09 2.04-0.15-0.15-0.16-0.22-0.27-0.32-0.34-0.97-0.76-1.95-1.49-2.9-2.27-1.46-1.19-2.9-2.41-4.35-3.62-0.22-0.18-0.42-0.36-0.44-0.67 0.08-0.02 0.12-0.05 0.16-0.04 1.16 0.39 2.33 0.77 3.49 1.17 2.1 0.72 4.1 1.66 6.01 2.82 0.81 0.49 1.6 1 2.4 1.49 0.7 0.43 0.71 0.42 1.28-0.13 0.31-0.31 0.63-0.62 0.89-0.97 0.23-0.3 0.54-0.58 0.56-1.05-0.44-0.25-0.87-0.5-1.3-0.75-1.13-0.63-2.24-1.29-3.39-1.89-1.28-0.67-2.58-1.3-3.9-1.9-1.77-0.82-3.56-1.59-5.33-2.39-0.12-0.05-0.21-0.17-0.31-0.25 5.54 0 10.64 1.56 15.6 3.95z"/>
 <path class="cls-1" d="m116.14 120.4v-0.09c-0.03-0.14-0.06-0.36-0.12-0.6-0.21-0.74-0.42-1.47-0.62-2.21l-0.15-0.52c-0.48-1.67-0.84-3.53-1.11-5.7-0.29-2.36-0.51-4.75-0.64-7.08-0.27-4.8-0.24-9.57-0.1-15.25 0.06-2.34 0.15-4.73 0.25-7.03 0.06-1.55 0.13-3.11 0.18-4.66 0.09-2.71 0.19-5.92 0.24-9.12 0.06-3.81 0.1-8.85-0.18-13.97-0.15-2.81-0.38-5.28-0.71-7.57-0.17-1.2-0.38-2.4-0.58-3.56l-0.06-0.37c0.84-1.15 1.55-2.36 2.12-3.63 1.66-3.7 1.87-7.44 0.61-11.13-1.17-3.43-3.35-6.22-6.47-8.29-1.6-1.06-3.41-1.79-5.41-2.19-0.36-0.36-0.71-0.72-1.06-1.08-0.63-0.64-1.28-1.3-1.95-1.95-1.45-1.38-3.19-2.98-5.12-4.37-3.98-2.84-7.87-4.94-11.89-6.43-2.43-0.9-5.07-1.81-7.84-2.36-1.41-0.28-2.83-0.49-4.2-0.7l-0.77-0.11c-1.91-0.29-3.9-0.43-6.09-0.43h-0.66c-2.84 0.04-5.61 0.28-8.23 0.72-3.31 0.56-6.23 1.29-8.93 2.24-3.44 1.21-6.39 2.61-9.01 4.28-2.77 1.76-5.15 3.79-7.09 6.03l-0.14 0.16c-0.77 0.89-1.62 1.88-2.26 3.08-1.7 0.32-3.18 1.21-4.29 2.6-0.97 1.21-1.69 2.66-2.2 4.45-0.39 1.37-0.62 2.61-0.71 3.78-0.93 0.8-1.85 1.74-2.8 2.87-0.89 1.04-1.96 2.43-2.72 4.15h-0.07c-1.3 0.11-2.64 0.22-3.96 0.37-1.19 0.13-2.43 0.42-3.8 0.88-1.91 0.64-3.05 2.96-2.44 4.96 0.4 1.3 1.4 2.24 2.67 2.56-1.1 0.53-2.18 1.1-3.24 1.75-0.83 0.51-1.65 1.09-2.45 1.72-1.55 1.22-1.93 3.65-0.83 5.3 0.72 1.09 1.97 1.76 3.26 1.76 0.64 0 1.28-0.16 1.88-0.48 0.22-0.12 0.44-0.25 0.65-0.38 0.32-0.21 0.65-0.41 0.98-0.61-1.07 0.99-2.03 1.99-2.9 3.02-1.04 1.23-2.1 2.55-3.15 3.92-0.66 0.86-1.41 1.84-1.83 3.12-0.58 1.77 0.13 3.78 1.7 4.78 0.62 0.39 1.28 0.59 1.96 0.59 0.32 0 0.66-0.05 0.99-0.13 1.4-0.38 2.12-1.37 2.6-2.02 0.34-0.46 0.66-0.92 0.98-1.38 0.62-0.89 1.22-1.73 1.86-2.51 0.97-1.17 2.08-2.36 3.4-3.65 0.8-0.78 1.65-1.51 2.54-2.28 0.08-0.07 0.17-0.14 0.25-0.21-0.59 0.77-1.2 1.55-1.76 2.38-0.9 1.32-1.94 2.86-2.84 4.51-1.11 2.03-2.01 4.12-2.67 6.21-0.49 1.55-0.92 3.09-1.39 4.8-0.37 1.35-0.03 2.72 0.96 3.85 0.91 1.04 1.96 1.26 2.68 1.26 0.31 0 0.64-0.04 0.96-0.12 1.43-0.37 2.47-1.3 2.94-2.64 0.18-0.52 0.35-1.05 0.52-1.58 0.12-0.38 0.24-0.75 0.37-1.13 0.13-0.37 0.25-0.74 0.37-1.12 0.34-1.03 0.66-2 1.03-2.95 0.33-0.84 0.75-1.66 1.19-2.53l0.29-0.58c0.7-1.4 1.6-2.69 2.62-4.05 0.43 0.5 0.87 1.01 1.35 1.51 1.84 1.92 4.02 3.67 6.67 5.35 1.44 0.92 3.12 1.95 4.96 2.73 0.32 2.18 0.38 4.14 0.18 6-0.11 0.96-0.29 1.93-0.48 2.95-0.04 0.23-0.09 0.45-0.13 0.68-0.19 0.09-0.36 0.18-0.51 0.27-1.71 0.93-3.41 1.85-5.1 2.78-4.01 2.21-7.72 4.79-11.03 7.67-3.88 3.38-6.98 6.85-9.49 10.63-1.89 2.85-3.36 5.6-4.49 8.41-0.97 2.42-1.75 5.04-2.3 7.78-0.08 0.42-0.15 0.84-0.22 1.28-0.03 0.2-0.06 0.4-0.1 0.61l-0.05 0.32h115.17l-0.05-0.31zm-110.61-8.95c1.14-2.84 2.61-5.5 4.3-8.05 2.56-3.85 5.66-7.2 9.14-10.23 3.29-2.87 6.86-5.32 10.68-7.43 1.69-0.93 3.39-1.85 5.08-2.77 0.27-0.15 0.54-0.3 0.83-0.39 0.34-0.1 0.52-0.31 0.58-0.64 0.26-1.47 0.58-2.93 0.74-4.4 0.25-2.3 0.12-4.6-0.25-6.89-0.08-0.5-0.26-0.8-0.77-1-1.78-0.71-3.42-1.7-5.03-2.72-2.29-1.45-4.43-3.09-6.3-5.05-0.85-0.89-1.62-1.85-2.43-2.77-0.12-0.14-0.26-0.27-0.44-0.46-0.28 0.34-0.51 0.62-0.73 0.91-1.31 1.71-2.6 3.42-3.57 5.36-0.54 1.08-1.1 2.15-1.55 3.27-0.54 1.36-0.97 2.77-1.44 4.16-0.3 0.89-0.57 1.8-0.88 2.68-0.26 0.74-0.79 1.17-1.56 1.37-0.16 0.04-0.32 0.06-0.46 0.06-0.47 0-0.86-0.21-1.19-0.58-0.5-0.57-0.75-1.25-0.54-2.01 0.44-1.58 0.88-3.17 1.38-4.73 0.64-2.03 1.5-3.99 2.52-5.85 0.82-1.5 1.77-2.93 2.74-4.34 0.8-1.17 1.71-2.28 2.56-3.39-0.67-1.01-1.33-2.02-2.03-3.09-0.31 0.27-0.56 0.48-0.8 0.7-1.27 1.12-2.58 2.19-3.79 3.37-1.24 1.21-2.44 2.47-3.54 3.8-1.05 1.26-1.94 2.65-2.91 3.98-0.4 0.55-0.79 1.09-1.52 1.28-0.17 0.04-0.32 0.07-0.47 0.07-0.32 0-0.61-0.1-0.9-0.28-0.8-0.51-1.18-1.57-0.88-2.48 0.31-0.96 0.92-1.75 1.52-2.53 1-1.3 2.03-2.59 3.09-3.85 1.42-1.68 3.02-3.18 4.73-4.56 1.19-0.96 2.43-1.88 3.75-2.89-0.11-0.77-0.23-1.65-0.36-2.58-0.13 0.04-0.28 0.05-0.41 0.11-2.89 1.34-5.68 2.86-8.37 4.56-0.17 0.11-0.33 0.21-0.51 0.3-0.33 0.17-0.65 0.25-0.95 0.25-0.71 0-1.29-0.41-1.6-0.88-0.51-0.77-0.35-2.04 0.41-2.64 0.72-0.57 1.48-1.1 2.26-1.58 1.91-1.18 3.95-2.09 6.01-2.98 0.8-0.35 1.65-0.6 2.48-0.86 0.34-0.1 0.53-0.27 0.57-0.63 0.06-0.65 0.15-1.29 0.23-2.01-1.29 0.26-2.49 0.49-3.69 0.73-0.64 0.13-1.28 0.29-1.93 0.41-0.15 0.03-0.29 0.04-0.44 0.04-0.86 0-1.56-0.5-1.81-1.29-0.27-0.9 0.22-2.18 1.17-2.5 1.11-0.37 2.23-0.66 3.38-0.79 1.57-0.17 3.14-0.29 4.72-0.42 0.35-0.03 0.55-0.18 0.67-0.51 0.59-1.61 1.56-2.97 2.66-4.27 0.87-1.03 1.79-1.99 2.82-2.85 0.32-0.27 0.41-0.61 0.44-0.99 0.07-1.21 0.31-2.39 0.65-3.55 0.39-1.36 0.94-2.64 1.84-3.75s2.05-1.77 3.46-1.95c0.46-0.06 0.69-0.24 0.88-0.65 0.56-1.21 1.45-2.2 2.31-3.19 1.92-2.23 4.18-4.08 6.65-5.66 2.69-1.71 5.59-3.02 8.6-4.08 2.8-0.98 5.68-1.66 8.6-2.15 2.63-0.44 5.27-0.66 7.93-0.69h0.63c1.94 0 3.88 0.12 5.8 0.4 1.63 0.24 3.26 0.47 4.87 0.79 2.58 0.52 5.07 1.37 7.55 2.28 4.11 1.52 7.87 3.65 11.42 6.18 1.76 1.25 3.35 2.7 4.9 4.18 1.08 1.03 2.1 2.12 3.16 3.17 0.14 0.14 0.35 0.27 0.55 0.31 1.79 0.32 3.47 0.95 4.99 1.96 2.7 1.79 4.64 4.2 5.69 7.28 1.12 3.29 0.87 6.53-0.55 9.68-0.6 1.34-1.37 2.6-2.28 3.76-0.15 0.19-0.11 0.35-0.07 0.54 0.25 1.45 0.51 2.89 0.72 4.35 0.35 2.46 0.55 4.92 0.69 7.4 0.25 4.61 0.25 9.22 0.17 13.83-0.05 3.03-0.14 6.06-0.24 9.09-0.13 3.91-0.33 7.81-0.42 11.71-0.12 5.14-0.19 10.28 0.1 15.41 0.14 2.41 0.36 4.82 0.65 7.21 0.25 2.02 0.61 4.03 1.17 6 0.11 0.4 0.22 0.79 0.34 1.19h-110.3c0.51-2.48 1.21-4.91 2.16-7.27z"/>
</svg>
