<?xml version="1.0" encoding="UTF-8" standalone="no"?>
<!DOCTYPE svg PUBLIC "-//W3C//DTD SVG 1.1//EN" "http://www.w3.org/Graphics/SVG/1.1/DTD/svg11.dtd">
<svg width="100%" height="100%" viewBox="0 0 667 667" version="1.1" xmlns="http://www.w3.org/2000/svg" xmlns:xlink="http://www.w3.org/1999/xlink" xml:space="preserve" xmlns:serif="http://www.serif.com/" style="fill-rule:evenodd;clip-rule:evenodd;stroke-linecap:round;stroke-linejoin:round;stroke-miterlimit:1.5;">
    <g transform="matrix(1,0,0,1,-4430.04,-7321.82)">
        <g transform="matrix(1,0,0,1,-0.737413,-0.363451)">
            <g transform="matrix(0.578207,0,0,0.578207,3340.86,6799.05)">
                <circle cx="2460.99" cy="1480.77" r="576.006" style="fill:none;"/>
                <clipPath id="_clip1">
                    <circle cx="2460.99" cy="1480.77" r="576.006"/>
                </clipPath>
                <g clip-path="url(#_clip1)">
                    <g transform="matrix(1.37562,0,0,1.37562,-536.549,-181.405)">
                        <path d="M1997.19,1273.98C1978.67,1242.6 1968.04,1206.02 1968.04,1166.97C1968.04,1141.37 1972.61,1116.83 1980.97,1094.12C1976.1,1087.52 1973.23,1079.36 1973.23,1070.54C1973.23,1048.56 1991.07,1030.72 2013.04,1030.72C2014.63,1030.72 2016.2,1030.82 2017.74,1031C2056.46,985.124 2114.37,955.967 2179.04,955.967C2243.58,955.967 2301.39,985.008 2340.11,1030.72C2340.24,1030.72 2340.36,1030.72 2340.49,1030.72C2362.46,1030.72 2380.3,1048.56 2380.3,1070.54C2380.3,1077.46 2378.53,1083.98 2375.41,1089.66C2384.85,1113.6 2390.04,1139.68 2390.04,1166.97C2390.04,1206.02 2379.41,1242.6 2360.9,1273.98L2360.9,1586.1C2360.9,1636.29 2320.15,1677.03 2269.97,1677.03L2088.11,1677.03C2037.93,1677.03 1997.19,1636.29 1997.19,1586.1L1997.19,1273.98Z" style="stroke:black;stroke-width:1.26px;"/>
                    </g>
                    <g transform="matrix(1.72948,0,0,1.72948,-13319.1,-2030.13)">
                        <path d="M9209.01,2199.44C9209.01,2155.92 9173.68,2120.59 9130.15,2120.59C9086.63,2120.59 9051.3,2155.92 9051.3,2199.44L9051.3,2323.99C9051.3,2367.51 9086.63,2402.85 9130.15,2402.85C9173.68,2402.85 9209.01,2367.51 9209.01,2323.99L9209.01,2199.44Z" style="fill:rgb(147,147,147);"/>
                    </g>
                    <g transform="matrix(1.37562,0,0,1.37562,-536.549,-181.405)">
                        <path d="M1997.19,1273.98C1978.67,1242.6 1968.04,1206.02 1968.04,1166.97C1968.04,1141.37 1972.61,1116.83 1980.97,1094.12C1976.1,1087.52 1973.23,1079.36 1973.23,1070.54C1973.23,1048.56 1991.07,1030.72 2013.04,1030.72C2014.63,1030.72 2016.2,1030.82 2017.74,1031C2056.46,985.124 2114.37,955.967 2179.04,955.967C2243.58,955.967 2301.39,985.008 2340.11,1030.72C2340.24,1030.72 2340.36,1030.72 2340.49,1030.72C2362.46,1030.72 2380.3,1048.56 2380.3,1070.54C2380.3,1077.46 2378.53,1083.98 2375.41,1089.66C2384.85,1113.6 2390.04,1139.68 2390.04,1166.97C2390.04,1206.02 2379.41,1242.6 2360.9,1273.98L2360.9,1586.1C2360.9,1636.29 2320.15,1677.03 2269.97,1677.03L2088.11,1677.03C2037.93,1677.03 1997.19,1636.29 1997.19,1586.1L1997.19,1273.98Z" style="fill:none;stroke:black;stroke-width:10.57px;"/>
                    </g>
                    <g transform="matrix(3.31022,0,0,3.37052,-4330.07,-2430.25)">
                        <ellipse cx="2088.8" cy="1104.47" rx="11.468" ry="18.021" style="fill:white;"/>
                    </g>
                    <g transform="matrix(2.25334,0,0,1.43394,-2122.46,-269.706)">
                        <ellipse cx="2088.8" cy="1104.47" rx="11.468" ry="18.021" style="stroke:rgb(0,255,111);stroke-width:1.53px;"/>
                    </g>
                    <g transform="matrix(2.92399,0,0,2.92399,-22712.4,-6035.55)">
                        <path d="M8650.92,2512.71C8650.05,2513.68 8648.78,2514.29 8647.38,2514.29C8644.73,2514.29 8642.59,2512.14 8642.59,2509.5C8642.59,2506.86 8644.73,2504.71 8647.38,2504.71C8649.81,2504.71 8651.83,2506.53 8652.12,2508.89C8652.14,2508.89 8652.15,2508.89 8652.16,2508.89C8653.88,2508.89 8655.28,2509.78 8655.28,2510.88C8655.28,2511.98 8653.88,2512.88 8652.16,2512.88C8651.72,2512.88 8651.3,2512.82 8650.92,2512.71Z" style="fill:white;"/>
                    </g>
                    <g transform="matrix(2.82429,0,0,2.92399,-21859.5,-6035.55)">
                        <path d="M8554.31,2514.78C8554.16,2514.03 8554.09,2513.26 8554.09,2512.47C8554.09,2505.51 8559.93,2499.87 8567.13,2499.87C8574.33,2499.87 8580.17,2505.51 8580.17,2512.47C8580.17,2513.26 8580.1,2514.03 8579.95,2514.78C8578.82,2510.03 8573.51,2506.42 8567.13,2506.42C8560.75,2506.42 8555.43,2510.03 8554.31,2514.78Z" style="fill:white;"/>
                    </g>
                    <g transform="matrix(2.14413,0,0,2.14413,1560.99,-159.715)">
                        <path d="M408.718,730.157C408.718,734.701 411.471,738.608 415.4,740.297C416.012,742.924 416.336,745.661 416.336,748.474C416.336,768.291 400.248,784.38 380.43,784.38C360.613,784.38 344.524,768.291 344.524,748.474C344.524,728.657 360.613,712.568 380.43,712.568L459.069,712.568C478.886,712.568 494.975,728.657 494.975,748.474C494.975,768.291 478.886,784.38 459.069,784.38C439.252,784.38 423.163,768.291 423.163,748.474C423.163,745.661 423.487,742.924 424.1,740.297C428.028,738.608 430.781,734.701 430.781,730.157C430.781,729.052 430.618,727.984 430.315,726.976C428.948,722.436 424.732,719.126 419.75,719.126C414.767,719.126 410.551,722.436 409.184,726.976C408.881,727.984 408.718,729.052 408.718,730.157Z" style="fill:white;"/>
                    </g>
                </g>
                <path d="M2460.99,904.76C2778.89,904.76 3036.99,1162.86 3036.99,1480.77C3036.99,1798.67 2778.89,2056.77 2460.99,2056.77C2143.08,2056.77 1884.98,1798.67 1884.98,1480.77C1884.98,1162.86 2143.08,904.76 2460.99,904.76ZM2460.99,1002.23C2196.87,1002.23 1982.45,1216.65 1982.45,1480.77C1982.45,1744.88 2196.87,1959.31 2460.99,1959.31C2725.1,1959.31 2939.53,1744.88 2939.53,1480.77C2939.53,1216.65 2725.1,1002.23 2460.99,1002.23Z"/>
            </g>
        </g>
        <g transform="matrix(1,0,0,1,-0.737413,-0.363451)">
            <g transform="matrix(2.25423,0,0,3.58488,3720.2,6829.95)">
                <path d="M418.575,225.371C418.575,224.632 417.621,224.032 416.446,224.032L404.819,224.032C403.644,224.032 402.69,224.632 402.69,225.371C402.69,226.109 403.644,226.709 404.819,226.709L416.446,226.709C417.621,226.709 418.575,226.109 418.575,225.371Z" style="fill:white;"/>
            </g>
        </g>
        <g transform="matrix(1,0,0,1,-0.737413,-0.363451)">
            <g transform="matrix(2.17742,0.583437,-0.927834,3.46272,3960.85,6600.09)">
                <path d="M418.575,225.371C418.575,224.632 417.621,224.032 416.446,224.032L404.819,224.032C403.644,224.032 402.69,224.632 402.69,225.371C402.69,226.109 403.644,226.709 404.819,226.709L416.446,226.709C417.621,226.709 418.575,226.109 418.575,225.371Z" style="fill:white;"/>
            </g>
        </g>
        <g transform="matrix(1,0,0,1,-0.737413,-0.363451)">
            <g transform="matrix(2.17742,-0.583437,0.927834,3.46272,3542.64,7114.87)">
                <path d="M418.575,225.371C418.575,224.632 417.621,224.032 416.446,224.032L404.819,224.032C403.644,224.032 402.69,224.632 402.69,225.371C402.69,226.109 403.644,226.709 404.819,226.709L416.446,226.709C417.621,226.709 418.575,226.109 418.575,225.371Z" style="fill:white;"/>
            </g>
        </g>
        <g transform="matrix(1,0,0,1,-0.737413,-0.363451)">
            <g transform="matrix(-2.25423,0,0,3.58488,5807.44,6829.95)">
                <path d="M418.575,225.371C418.575,224.632 417.621,224.032 416.446,224.032L404.819,224.032C403.644,224.032 402.69,224.632 402.69,225.371C402.69,226.109 403.644,226.709 404.819,226.709L416.446,226.709C417.621,226.709 418.575,226.109 418.575,225.371Z" style="fill:white;"/>
            </g>
        </g>
        <g transform="matrix(1,0,0,1,-0.737413,-0.363451)">
            <g transform="matrix(-2.17742,0.583437,0.927834,3.46272,5566.8,6600.09)">
                <path d="M418.575,225.371C418.575,224.632 417.621,224.032 416.446,224.032L404.819,224.032C403.644,224.032 402.69,224.632 402.69,225.371C402.69,226.109 403.644,226.709 404.819,226.709L416.446,226.709C417.621,226.709 418.575,226.109 418.575,225.371Z" style="fill:white;"/>
            </g>
        </g>
        <g transform="matrix(1,0,0,1,-0.737413,-0.363451)">
            <g transform="matrix(-2.17742,-0.583437,-0.927834,3.46272,5985.01,7114.87)">
                <path d="M418.575,225.371C418.575,224.632 417.621,224.032 416.446,224.032L404.819,224.032C403.644,224.032 402.69,224.632 402.69,225.371C402.69,226.109 403.644,226.709 404.819,226.709L416.446,226.709C417.621,226.709 418.575,226.109 418.575,225.371Z" style="fill:white;"/>
            </g>
        </g>
    </g>
</svg>
